<?xml version="1.0" encoding="UTF-8" standalone="no"?>
<!-- Created with Inkscape (http://www.inkscape.org/) -->

<svg
   xmlns:dc="http://purl.org/dc/elements/1.1/"
   xmlns:cc="http://creativecommons.org/ns#"
   xmlns:rdf="http://www.w3.org/1999/02/22-rdf-syntax-ns#"
   xmlns:svg="http://www.w3.org/2000/svg"
   xmlns="http://www.w3.org/2000/svg"
   xmlns:sodipodi="http://sodipodi.sourceforge.net/DTD/sodipodi-0.dtd"
   xmlns:inkscape="http://www.inkscape.org/namespaces/inkscape"
   width="267.4025"
   height="124.073"
   viewBox="0 0 267.40251 124.07298"
   id="svg5039"
   version="1.1"
   inkscape:version="0.91 r13725"
   sodipodi:docname="century 21.svg">
  <defs
     id="defs5041">
	
	
	


		
		
		
		
		
	
		
		
	</defs>
  <sodipodi:namedview
     id="base"
     pagecolor="#ffffff"
     bordercolor="#666666"
     borderopacity="1.0"
     inkscape:pageopacity="0.0"
     inkscape:pageshadow="2"
     inkscape:zoom="3.1947359"
     inkscape:cx="141.63925"
     inkscape:cy="61.354"
     inkscape:document-units="px"
     inkscape:current-layer="layer1"
     showgrid="false"
     fit-margin-top="0"
     fit-margin-left="0"
     fit-margin-right="0"
     fit-margin-bottom="0"
     units="px"
     inkscape:window-width="1280"
     inkscape:window-height="744"
     inkscape:window-x="-4"
     inkscape:window-y="-4"
     inkscape:window-maximized="1" />
  <metadata
     id="metadata5044">
    <rdf:RDF>
      <cc:Work
         rdf:about="">
        <dc:format>image/svg+xml</dc:format>
        <dc:type
           rdf:resource="http://purl.org/dc/dcmitype/StillImage" />
        <dc:title></dc:title>
      </cc:Work>
    </rdf:RDF>
  </metadata>
  <g
     inkscape:label="Layer 1"
     inkscape:groupmode="layer"
     id="layer1"
     style="fill:#ffffff"
     transform="translate(-230.40799,-761.0718)">
    <g
       id="g5120"
       transform="translate(0.49999817,-0.49998861)">
      <rect
         id="rect5053"
         height="17.021"
         width="7.0799999"
         y="867.43079"
         x="399.11148"
         style="fill:#71b100" />
      <rect
         id="rect5055"
         height="6.3660002"
         width="137.108"
         y="878.08575"
         x="230.43549"
         style="fill:#71b100" />
      <polyline
         transform="translate(221.22649,754.08378)"
         style="fill:#71b100"
         points="80.216,108.03 80.216,115.034 142.784,99.361 205.659,115.034 205.659,108.03 142.784,92.3    80.216,108.03  "
         id="polyline5057" />
      <path
         id="path5061"
         d="m 416.89049,803.25378 c 0,-3.468 3.53,-5.385 4.852,-5.385 l 0,26.264 -10.292,14.898 11.662,0 34.694,-50.67 -11.134,0 -15.181,21.713 0,-21.713 -9.217,0 c 0,0 -3.23,0 -5.683,2.749 l 0,-2.749 -8.909,0 0,39.059 9.207,0 0,-24.166"
         inkscape:connector-curvature="0" />
      <path
         id="path5063"
         d="m 475.03949,822.78478 c -4.223,-5.041 -10.72,-7.864 -17.763,-7.864 -12.216,0 -22.261,7.357 -22.261,24.11 l 11.656,0 c 0,-8.38 4.919,-12.451 10.604,-12.451 5.378,0 9.742,4.614 9.742,10.054 0,5.683 -4.364,9.992 -4.364,9.992 l -26.567,26.556 0,11.962 44.45,0 0,-12.736 -26.26,0 13.28,-13.284 c 0,0 12.447,-10.288 12.447,-21.953 0,-3.563 -0.706,-6.921 -1.964,-9.721 l -0.035,-0.029 6.358,0 0,57.724 12.448,0 0,-70.465 -21.773,0 0,8.105"
         inkscape:connector-curvature="0" />
      <path
         id="path5069"
         d="m 306.28449,797.03978 c 1.677,0 3.294,0.297 4.61,1.072 l -15.671,13.579 c -0.301,-1.076 -0.542,-2.149 -0.542,-3.526 0.241,-6.227 5.386,-11.125 11.603,-11.125 m -9.748,31.46 c 0.489,-0.631 0.878,-1.173 1.264,-1.688 l 0.038,0.039 c 2.58,1.206 5.447,1.888 8.447,1.888 4.069,0 7.899,-1.076 10.892,-3.23 l 0,-10.588 c -2.754,3.291 -6.823,4.903 -10.892,4.903 -1.613,0 -3.23,-0.297 -4.604,-1.079 l 18.724,-16.028 0,24.703 9.448,0 0,-22.786 c 0,-4.313 3.535,-7.594 7.604,-7.594 4.364,0 7.594,3.281 7.594,7.594 l 0,22.786 8.974,0 0,-24.703 c 0,-1.695 -0.307,-3.327 -0.86,-4.848 l 4.628,0 0,29.551 9.512,0 0,-29.551 2.99,0 0.241,15.736 c 0,7.836 6.218,14.355 14.355,14.355 3.824,0 7.294,-1.38 10.055,-3.827 l 0,3.287 9.205,0 0,-39.059 -9.205,0 0,23.33 c 0,4.309 -3.832,7.836 -7.902,7.836 -4.063,0 -7.533,-3.527 -7.533,-7.836 l 0,-23.33 -12.205,0 0,-11.663 -9.512,0 0,11.664 -5.148,0 0,8.29 c -2.314,-4.862 -7.301,-8.29 -12.979,-8.29 -3.826,0 -7.057,1.376 -9.813,4.068 l 0,-4.068 -9.748,0 0,5.441 c -3.531,-3.531 -8.376,-5.682 -13.822,-5.682 -11.062,0 -20.277,9.217 -20.277,20.342 0,3.292 0.815,6.423 2.258,9.195 -4.61,5.375 -11.475,8.692 -19.065,8.692 -13.821,0 -25.484,-11.668 -25.484,-25.783 0,-14.059 11.663,-25.722 25.484,-25.722 7.833,0 15.432,4.065 19.5,9.751 l 15.429,0 c -0.237,-0.538 -0.538,-1.08 -0.839,-1.376 -1.611,-3.534 -4,-7.062 -6.755,-9.754 -15.135,-15.192 -39.837,-15.192 -54.732,0 -15.194,14.897 -15.194,39.603 0,54.732 14.896,15.198 39.598,15.198 54.733,0.302 z"
         inkscape:connector-curvature="0" />
    </g>
  </g>
</svg>
